<svg width="240" height="240" viewBox="0 0 240 240" fill="none" xmlns="http://www.w3.org/2000/svg">
<g clip-path="url(#clip0_7_220)">
<path d="M120 240C186.274 240 240 186.274 240 120C240 53.7258 186.274 0 120 0C53.7258 0 0 53.7258 0 120C0 186.274 53.7258 240 120 240Z" fill="#161311"/>
<path d="M120 234C182.96 234 234 182.96 234 120C234 57.0395 182.96 6 120 6C57.0395 6 6 57.0395 6 120C6 182.96 57.0395 234 120 234Z" stroke="#2A2420" stroke-width="1.4"/>
<path d="M120 226C178.542 226 226 178.542 226 120C226 61.4578 178.542 14 120 14C61.4578 14 14 61.4578 14 120C14 178.542 61.4578 226 120 226Z" stroke="#2A2420" stroke-width="1.4"/>
<path d="M120 218C174.124 218 218 174.124 218 120C218 65.8761 174.124 22 120 22C65.8761 22 22 65.8761 22 120C22 174.124 65.8761 218 120 218Z" stroke="#2A2420" stroke-width="1.4"/>
<path d="M120 210C169.706 210 210 169.706 210 120C210 70.2944 169.706 30 120 30C70.2944 30 30 70.2944 30 120C30 169.706 70.2944 210 120 210Z" stroke="#2A2420" stroke-width="1.4"/>
<path d="M120 202C165.287 202 202 165.287 202 120C202 74.7127 165.287 38 120 38C74.7127 38 38 74.7127 38 120C38 165.287 74.7127 202 120 202Z" stroke="#2A2420" stroke-width="1.4"/>
<path d="M120 194C160.869 194 194 160.869 194 120C194 79.1309 160.869 46 120 46C79.1309 46 46 79.1309 46 120C46 160.869 79.1309 194 120 194Z" stroke="#2A2420" stroke-width="1.4"/>
<path d="M120 186C156.451 186 186 156.451 186 120C186 83.5492 156.451 54 120 54C83.5492 54 54 83.5492 54 120C54 156.451 83.5492 186 120 186Z" stroke="#2A2420" stroke-width="1.4"/>
<path d="M120 178C152.033 178 178 152.033 178 120C178 87.9675 152.033 62 120 62C87.9675 62 62 87.9675 62 120C62 152.033 87.9675 178 120 178Z" stroke="#2A2420" stroke-width="1.4"/>
<path d="M120 170C147.614 170 170 147.614 170 120C170 92.3858 147.614 70 120 70C92.3858 70 70 92.3858 70 120C70 147.614 92.3858 170 120 170Z" stroke="#2A2420" stroke-width="1.4"/>
<path d="M52 51.9999C64.4981 39.2983 80.2848 30.3259 97.5928 26.0873C114.901 21.8486 133.047 22.5108 150 27.9999" stroke="white" stroke-opacity="0.07" stroke-width="16" stroke-linecap="round"/>
<path d="M188 188C175.502 200.702 159.715 209.674 142.407 213.913C125.099 218.151 106.953 217.489 90 212" stroke="white" stroke-opacity="0.05" stroke-width="16" stroke-linecap="round"/>
<path d="M120 160C142.091 160 160 142.091 160 120C160 97.9086 142.091 80 120 80C97.9086 80 80 97.9086 80 120C80 142.091 97.9086 160 120 160Z" fill="#D4531C"/>
<path d="M120 150C136.569 150 150 136.569 150 120C150 103.431 136.569 90 120 90C103.431 90 90 103.431 90 120C90 136.569 103.431 150 120 150Z" stroke="#161311" stroke-opacity="0.25"/>
<path d="M120 124.5C122.485 124.5 124.5 122.485 124.5 120C124.5 117.515 122.485 115.5 120 115.5C117.515 115.5 115.5 117.515 115.5 120C115.5 122.485 117.515 124.5 120 124.5Z" fill="#F3EBDD"/>
</g>
<defs>
<clipPath id="clip0_7_220">
<rect width="240" height="240" fill="white"/>
</clipPath>
</defs>
</svg>
